<?xml version="1.0" encoding="UTF-8" standalone="no"?>
<!-- Created with Inkscape (http://www.inkscape.org/) -->

<svg
   xmlns:dc="http://purl.org/dc/elements/1.1/"
   xmlns:cc="http://creativecommons.org/ns#"
   xmlns:rdf="http://www.w3.org/1999/02/22-rdf-syntax-ns#"
   xmlns:svg="http://www.w3.org/2000/svg"
   xmlns="http://www.w3.org/2000/svg"
   xmlns:sodipodi="http://sodipodi.sourceforge.net/DTD/sodipodi-0.dtd"
   xmlns:inkscape="http://www.inkscape.org/namespaces/inkscape"
   width="736"
   height="142"
   viewBox="0 0 194.73333 37.570835"
   version="1.1"
   id="svg1089"
   inkscape:version="0.92.4 (5da689c313, 2019-01-14)"
   sodipodi:docname="Logo.svg">
  <defs
     id="defs1083" />
  <sodipodi:namedview
     id="base"
     pagecolor="#141414"
     bordercolor="#666666"
     borderopacity="1.0"
     inkscape:pageopacity="0"
     inkscape:pageshadow="2"
     inkscape:zoom="0.70710678"
     inkscape:cx="463.894"
     inkscape:cy="313.25714"
     inkscape:document-units="px"
     inkscape:current-layer="layer2"
     showgrid="false"
     units="px"
     inkscape:window-width="1920"
     inkscape:window-height="1017"
     inkscape:window-x="-8"
     inkscape:window-y="-8"
     inkscape:window-maximized="1"
     fit-margin-top="0"
     fit-margin-left="0"
     fit-margin-right="0"
     fit-margin-bottom="0">
    <inkscape:grid
       type="xygrid"
       id="grid1634"
       originx="0"
       originy="-1.3229204" />
  </sodipodi:namedview>
  <metadata
     id="metadata1086">
    <rdf:RDF>
      <cc:Work
         rdf:about="">
        <dc:format>image/svg+xml</dc:format>
        <dc:type
           rdf:resource="http://purl.org/dc/dcmitype/StillImage" />
        <dc:title />
      </cc:Work>
    </rdf:RDF>
  </metadata>
  <g
     inkscape:label="Layer 1"
     inkscape:groupmode="layer"
     id="layer1"
     transform="translate(0,-258.10624)"
     style="display:inline">
    <path
       inkscape:connector-curvature="0"
       id="path1012"
       style="font-style:normal;font-variant:normal;font-weight:normal;font-stretch:normal;font-size:26.45833397px;line-height:6.61458349px;font-family:Negatronic;-inkscape-font-specification:Negatronic;font-variant-ligatures:normal;font-variant-caps:normal;font-variant-numeric:normal;text-align:start;letter-spacing:0px;word-spacing:0px;writing-mode:lr-tb;text-anchor:start;fill:#ffffff;fill-opacity:1;stroke:none;stroke-width:0.26458335"
       d="m 0,276.89166 16.668751,-2.11667 2.116666,-16.66875 2.116667,16.66875 16.668751,2.11667 -16.668751,2.11666 -2.116667,16.66875 -2.116666,-16.66875 z m 33.866668,15.08125 h -8.995834 v -3.70417 h 5.291667 v -5.29167 h 3.704167 z m 0,-30.1625 v 8.99583 h -3.704167 v -5.29167 h -5.291667 v -3.70416 z m -30.1625014,0 h 8.9958344 v 3.70416 H 7.4083336 v 5.29167 h -3.704167 z m 0,30.1625 v -8.99584 h 3.704167 v 5.29167 h 5.2916674 v 3.70417 z" />
  </g>
  <g
     inkscape:groupmode="layer"
     id="layer2"
     inkscape:label="Layer 2"
     transform="translate(0,4.0372213e-6)">
    <g
       aria-label="Adamantica"
       style="font-style:normal;font-variant:normal;font-weight:normal;font-stretch:normal;font-size:26.45833206px;line-height:6.61458302px;font-family:Negatronic;-inkscape-font-specification:Negatronic;font-variant-ligatures:normal;font-variant-caps:normal;font-variant-numeric:normal;text-align:start;letter-spacing:0px;word-spacing:0px;writing-mode:lr-tb;text-anchor:start;fill:#ffffff;fill-opacity:1;stroke:none;stroke-width:0.26458332"
       id="text1562">
      <path
         d="m 53.18125,23.733124 h -6.932083 l -1.640417,4.312708 h -3.81 L 48.048333,9.5249992 h 3.360208 l 7.196667,18.5208328 h -3.81 z m -5.953125,-3.069167 h 4.974166 l -2.460625,-6.6675 h -0.02646 z"
         style="fill:#ffffff;fill-opacity:1;stroke-width:0.26458332"
         id="path4535" />
      <path
         d="m 64.553802,28.045832 q -2.354792,0 -3.81,-1.42875 -1.42875,-1.42875 -1.42875,-3.757083 v -2.619375 q 0,-1.613959 0.687916,-2.831042 0.687917,-1.243541 1.931459,-1.905 1.243541,-0.687916 2.883958,-0.687916 h 1.455208 q 0.767292,0 1.561042,0.3175 1.137708,0.529166 1.322916,0.714375 V 9.5249992 h 3.598333 V 28.045832 h -3.333749 v -1.74625 q -0.423334,0.582083 -1.42875,1.217083 -0.899584,0.529167 -1.878542,0.529167 z m 1.957916,-3.095625 q 1.084792,0 1.799167,-0.767292 0.740833,-0.79375 0.846666,-2.090208 v -1.905 Q 68.972343,19.155832 68.337343,18.54729 67.728801,17.912291 66.882135,17.912291 h -1.613959 q -1.058333,0 -1.719791,0.714374 -0.635,0.714375 -0.635,1.878542 v 2.090208 q 0,1.058334 0.582083,1.719792 0.582084,0.635 1.508125,0.635 z"
         style="fill:#ffffff;fill-opacity:1;stroke-width:0.26458332"
         id="path4537" />
      <path
         d="m 79.997596,28.045832 q -2.06375,0 -3.33375,-1.031875 -1.269999,-1.031875 -1.269999,-2.725208 v -0.767292 q 0,-1.666875 1.322916,-2.672292 1.322917,-1.031875 3.4925,-1.031875 h 1.613958 q 0.687917,0 1.481667,0.185209 0.79375,0.185208 1.455208,0.502708 v -1.190625 q 0,-0.661458 -0.449792,-1.058333 -0.423333,-0.423333 -1.137708,-0.423333 H 80.89718 q -0.740834,0 -1.190625,0.07937 -0.449792,0.07937 -0.449792,0.476249 h -3.4925 q 0,-1.746249 1.402292,-2.645833 1.42875,-0.926041 3.730625,-0.926041 h 2.275416 q 2.328333,0 3.757083,1.243541 1.42875,1.217084 1.42875,3.254375 v 8.73125 h -3.33375 v -1.5875 q -0.396875,0.47625 -1.561041,1.11125 -0.926042,0.47625 -1.825625,0.47625 z m 1.905,-2.751667 q 0.978959,0 1.74625,-0.502708 0.767292,-0.502708 1.11125,-1.349375 v -0.238125 q -0.423333,-0.3175 -1.190625,-0.502708 -0.740833,-0.185209 -1.5875,-0.185209 h -1.666875 q -0.635,0 -1.031875,0.3175 -0.396875,0.3175 -0.396875,0.846667 v 0.47625 q 0,0.502708 0.423334,0.820208 0.449791,0.3175 1.164166,0.3175 z"
         style="fill:#ffffff;fill-opacity:1;stroke-width:0.26458332"
         id="path4539" />
      <path
         d="m 106.27031,14.816666 q 2.01083,0 3.22791,1.322916 1.21709,1.296459 1.21709,3.227917 v 8.678333 h -3.59834 v -8.678333 q 0,-0.740834 -0.34396,-1.164167 -0.34395,-0.449791 -0.89958,-0.449791 h -1.13771 q -0.74083,0 -1.29646,0.555624 -0.55562,0.529167 -0.68791,1.42875 v 8.307917 h -3.598335 v -8.651875 q 0,-0.740833 -0.343959,-1.190625 -0.343958,-0.449791 -0.899583,-0.449791 h -1.031875 q -0.767291,0 -1.349375,0.687916 -0.582083,0.687917 -0.740833,1.799167 v 7.805208 H 91.189057 V 14.816666 h 3.33375 v 1.561041 q 0.343958,-0.502708 1.243541,-1.084791 0.740834,-0.47625 1.508125,-0.47625 h 1.481667 q 0.79375,0 1.71979,0.502708 0.9525,0.502708 1.24354,1.217083 0.44979,-0.608541 1.40229,-1.217083 0.79375,-0.502708 1.69334,-0.502708 z"
         style="fill:#ffffff;fill-opacity:1;stroke-width:0.26458332"
         id="path4541" />
      <path
         d="m 117.87642,28.045832 q -2.06375,0 -3.33375,-1.031875 -1.27,-1.031875 -1.27,-2.725208 v -0.767292 q 0,-1.666875 1.32292,-2.672292 1.32292,-1.031875 3.4925,-1.031875 h 1.61396 q 0.68791,0 1.48166,0.185209 0.79375,0.185208 1.45521,0.502708 v -1.190625 q 0,-0.661458 -0.44979,-1.058333 -0.42333,-0.423333 -1.13771,-0.423333 h -2.27541 q -0.74084,0 -1.19063,0.07937 -0.44979,0.07937 -0.44979,0.476249 h -3.4925 q 0,-1.746249 1.40229,-2.645833 1.42875,-0.926041 3.73063,-0.926041 h 2.27541 q 2.32834,0 3.75709,1.243541 1.42875,1.217084 1.42875,3.254375 v 8.73125 h -3.33375 v -1.5875 q -0.39688,0.47625 -1.56105,1.11125 -0.92604,0.47625 -1.82562,0.47625 z m 1.905,-2.751667 q 0.97896,0 1.74625,-0.502708 0.76729,-0.502708 1.11125,-1.349375 v -0.238125 q -0.42333,-0.3175 -1.19062,-0.502708 -0.74084,-0.185209 -1.5875,-0.185209 h -1.66688 q -0.635,0 -1.03187,0.3175 -0.39688,0.3175 -0.39688,0.846667 v 0.47625 q 0,0.502708 0.42334,0.820208 0.44979,0.3175 1.16416,0.3175 z"
         style="fill:#ffffff;fill-opacity:1;stroke-width:0.26458332"
         id="path4543" />
      <path
         d="m 129.14725,14.816666 h 3.33375 v 1.613958 q 0.50271,-0.582083 1.50813,-1.137708 0.92604,-0.47625 1.85208,-0.47625 h 1.5875 q 2.16959,0 3.41313,1.322916 1.27,1.322917 1.27,3.307292 v 8.598958 h -3.59834 v -8.466667 q 0,-0.820208 -0.44979,-1.322916 -0.42333,-0.502708 -1.11125,-0.502708 h -1.5875 q -0.92604,0 -1.66687,0.687916 -0.71438,0.661458 -0.9525,1.74625 v 7.858125 h -3.59834 z"
         style="fill:#ffffff;fill-opacity:1;stroke-width:0.26458332"
         id="path4545" />
      <path
         d="m 150.77984,28.045832 q -2.32833,0 -3.41312,-1.058334 -1.0848,-1.058333 -1.0848,-3.280833 v -5.794374 h -2.32833 v -3.095625 h 2.43417 v -3.96875 h 3.4925 v 3.96875 h 3.43958 v 3.095625 h -3.43958 v 5.635624 q 0,0.740834 0.26458,1.084792 0.29104,0.343958 0.89958,0.343958 h 2.27542 v 3.069167 z"
         style="fill:#ffffff;fill-opacity:1;stroke-width:0.26458332"
         id="path4547" />
      <path
         d="m 156.34022,9.5249992 h 3.59834 v 3.5983328 h -3.59834 z m 0,5.2916668 h 3.59834 v 13.229166 h -3.59834 z"
         style="fill:#ffffff;fill-opacity:1;stroke-width:0.26458332"
         id="path4549" />
      <path
         d="m 168.56686,28.045832 q -1.66687,0 -2.96333,-0.661459 -1.27,-0.661458 -1.98438,-1.852083 -0.68791,-1.190625 -0.68791,-2.751666 v -2.69875 q 0,-1.561042 0.68791,-2.751667 0.71438,-1.190625 1.98438,-1.852083 1.27,-0.661458 2.93687,-0.661458 h 2.09021 q 1.5875,0 2.80458,0.635 1.21709,0.635 1.87855,1.799166 0.66145,1.137708 0.66145,2.645833 h -3.57187 q 0,-0.899583 -0.50271,-1.42875 -0.47625,-0.555624 -1.27,-0.555624 h -2.03729 q -0.92604,0 -1.50813,0.687916 -0.55562,0.661458 -0.55562,1.74625 v 2.169583 q 0,1.084792 0.58208,1.772709 0.58209,0.661458 1.50813,0.661458 h 2.03729 q 0.84667,0 1.34937,-0.608542 0.52917,-0.608541 0.52917,-1.613958 h 3.57188 q 0,2.407708 -1.50813,3.862916 -1.48167,1.455209 -3.94229,1.455209 z"
         style="fill:#ffffff;fill-opacity:1;stroke-width:0.26458332"
         id="path4551" />
      <path
         d="m 182.47196,28.045832 q -2.06375,0 -3.33375,-1.031875 -1.27,-1.031875 -1.27,-2.725208 v -0.767292 q 0,-1.666875 1.32291,-2.672292 1.32292,-1.031875 3.4925,-1.031875 h 1.61396 q 0.68792,0 1.48167,0.185209 0.79375,0.185208 1.45521,0.502708 v -1.190625 q 0,-0.661458 -0.44979,-1.058333 -0.42334,-0.423333 -1.13771,-0.423333 h -2.27542 q -0.74083,0 -1.19062,0.07937 -0.4498,0.07937 -0.4498,0.476249 h -3.4925 q 0,-1.746249 1.4023,-2.645833 1.42875,-0.926041 3.73062,-0.926041 h 2.27542 q 2.32833,0 3.75708,1.243541 1.42875,1.217084 1.42875,3.254375 v 8.73125 h -3.33375 v -1.5875 q -0.39687,0.47625 -1.56104,1.11125 -0.92604,0.47625 -1.82563,0.47625 z m 1.905,-2.751667 q 0.97896,0 1.74625,-0.502708 0.76729,-0.502708 1.11125,-1.349375 v -0.238125 q -0.42334,-0.3175 -1.19063,-0.502708 -0.74083,-0.185209 -1.5875,-0.185209 h -1.66687 q -0.635,0 -1.03188,0.3175 -0.39687,0.3175 -0.39687,0.846667 v 0.47625 q 0,0.502708 0.42333,0.820208 0.44979,0.3175 1.16417,0.3175 z"
         style="fill:#ffffff;fill-opacity:1;stroke-width:0.26458332"
         id="path4553" />
    </g>
    <text
       xml:space="preserve"
       style="font-style:normal;font-variant:normal;font-weight:normal;font-stretch:normal;font-size:26.45833397px;line-height:6.61458349px;font-family:Negatronic;-inkscape-font-specification:Negatronic;font-variant-ligatures:normal;font-variant-caps:normal;font-variant-numeric:normal;text-align:start;letter-spacing:0px;word-spacing:0px;writing-mode:lr-tb;text-anchor:start;fill:#000000;fill-opacity:1;stroke:none;stroke-width:0.26458335"
       x="40.415104"
       y="-10.914068"
       id="text4522"><tspan
         sodipodi:role="line"
         id="tspan4520"
         x="40.415104"
         y="0.3307237"
         style="stroke-width:0.26458335"></tspan></text>
  </g>
</svg>
